<svg id="Ebene_1" data-name="Ebene 1" xmlns="http://www.w3.org/2000/svg" viewBox="0 0 82 39">
  <defs>
    <style>
      .cls-1 {
        fill: #fff;
      }
    </style>
  </defs>
  <title>wetter</title>
  <g>
    <path class="cls-1" d="M22.91,15L19,29h-3.2l-3.22-12L9.34,29H6.14L2.22,15H4.89L7.75,27,10.9,15h3.33L17.37,27,20.23,15h2.68Z"/>
    <path class="cls-1" d="M36.43,22.49H27.62c0.18,3.12,2.05,4.65,4.29,4.65a20.54,20.54,0,0,0,4-.68l0.18,2.05a13.84,13.84,0,0,1-4.29.75c-3.67,0-6.66-2.39-6.66-7.28,0-4.39,2.5-7.28,6-7.28,3.85,0,5.33,3.15,5.33,7v0.75Zm-2.34-1.72c0-2.42-.91-4.16-3-4.16-1.82,0-3.12,1.51-3.43,4.16h6.42Z"/>
    <path class="cls-1" d="M47.48,29a10.18,10.18,0,0,1-2.42.31c-2.21,0-4.34-1.12-4.34-4.42v-8H37.86V15h2.86V11.6l1.3-.52h1V15h4.16v1.9H43.06v8a2.18,2.18,0,0,0,2.08,2.42,14.76,14.76,0,0,0,2.16-.26Z"/>
    <path class="cls-1" d="M57.62,29a10.18,10.18,0,0,1-2.42.31c-2.21,0-4.34-1.12-4.34-4.42v-8H48V15h2.86V11.6l1.3-.52h1V15h4.16v1.9H53.2v8a2.18,2.18,0,0,0,2.08,2.42,14.76,14.76,0,0,0,2.16-.26Z"/>
    <path class="cls-1" d="M70.36,22.49H61.55c0.18,3.12,2.05,4.65,4.29,4.65a20.55,20.55,0,0,0,4-.68L70,28.52a13.84,13.84,0,0,1-4.29.75c-3.67,0-6.66-2.39-6.66-7.28,0-4.39,2.5-7.28,6-7.28,3.85,0,5.33,3.15,5.33,7v0.75ZM68,20.78c0-2.42-.91-4.16-3-4.16-1.82,0-3.12,1.51-3.43,4.16H68Z"/>
    <path class="cls-1" d="M81,17.35a8.21,8.21,0,0,0-.86-0.08c-1.38,0-2.78,1.3-3.82,2.63V29H74V15h2.26v2.47c1-1.27,2.26-2.6,3.82-2.6a3.72,3.72,0,0,1,1.07.13Z"/>
  </g>
</svg>
